<svg version="1.2" baseProfile="tiny-ps" xmlns="http://www.w3.org/2000/svg" viewBox="0 0 19 18" width="19" height="18">
	<title>Pricing</title>
	<style>
		tspan { white-space:pre }
		.shp0 { fill: #ffffff } 
	</style>
	<g id="Pricing">
		<g id="Pricing $29">
			<path id="basket" class="shp0" d="M18.85 5.21L15.59 12.52C15.34 13.1 14.77 13.5 14.11 13.5L3.8 13.5C2.9 13.5 2.17 12.74 2.17 11.81L2.17 3.44L0.24 1.44C0.09 1.29 0 1.08 0 0.84C0 0.38 0.36 0 0.81 0C1.04 0 1.24 0.09 1.39 0.25L3.87 2.81L17.37 2.81C18.27 2.81 19 3.57 19 4.5C19 4.75 18.95 4.99 18.85 5.21ZM3.8 11.81L14.11 11.81L16.12 7.31L3.8 7.31L3.8 11.81ZM17.37 4.5L3.8 4.5L3.8 5.62L16.87 5.62L17.37 4.5L17.37 4.5ZM4.34 14.62C5.24 14.62 5.97 15.38 5.97 16.31C5.97 17.24 5.24 18 4.34 18C3.44 18 2.71 17.24 2.71 16.31C2.71 15.38 3.44 14.62 4.34 14.62ZM13.03 14.62C13.93 14.62 14.66 15.38 14.66 16.31C14.66 17.24 13.93 18 13.03 18C12.13 18 11.4 17.24 11.4 16.31C11.4 15.38 12.13 14.62 13.03 14.62Z" />
		</g>
	</g>
</svg>