<svg version="1.2" baseProfile="tiny-ps" xmlns="http://www.w3.org/2000/svg" width="19" height="18"><style/><g id="Pricing"><g id="Pricing $29"><path id="basket" d="M18.85 5.21l-3.26 7.31c-.25.58-.82.98-1.48.98H3.8c-.9 0-1.63-.76-1.63-1.69V3.44l-1.93-2A.838.838 0 010 .84C0 .38.36 0 .81 0c.23 0 .43.09.58.25l2.48 2.56h13.5c.9 0 1.63.76 1.63 1.69 0 .25-.05.49-.15.71zM3.8 11.81h10.31l2.01-4.5H3.8v4.5zM17.37 4.5H3.8v1.12h13.07l.5-1.12zM4.34 14.62c.9 0 1.63.76 1.63 1.69 0 .93-.73 1.69-1.63 1.69-.9 0-1.63-.76-1.63-1.69 0-.93.73-1.69 1.63-1.69zm8.69 0c.9 0 1.63.76 1.63 1.69 0 .93-.73 1.69-1.63 1.69-.9 0-1.63-.76-1.63-1.69 0-.93.73-1.69 1.63-1.69z" fill="#fff"/></g></g></svg>